<?xml version="1.0" encoding="utf-8"?>
<!-- Generator: Adobe Illustrator 24.1.0, SVG Export Plug-In . SVG Version: 6.00 Build 0)  -->
<svg version="1.1" id="Layer_1" xmlns="http://www.w3.org/2000/svg" xmlns:xlink="http://www.w3.org/1999/xlink" x="0px" y="0px"
	 viewBox="0 0 500 500" style="enable-background:new 0 0 500 500;" xml:space="preserve">
<style type="text/css">
	.st0{fill:#FFE900;}
	.st1{clip-path:url(#SVGID_2_);}
</style>
<rect x="12.5" y="288.8" transform="matrix(0.9945 -0.1045 0.1045 0.9945 -31.6678 27.8639)" class="st0" width="475.1" height="54.5"/>
<g>
	<defs>
		<rect id="SVGID_1_" width="500" height="500"/>
	</defs>
	<clipPath id="SVGID_2_">
		<use xlink:href="#SVGID_1_"  style="overflow:visible;"/>
	</clipPath>
	<path class="st1" d="M239.9,162.4c-10.8,0-21.3,3.2-30.3,9.2c-9,6-16,14.5-20.1,24.5s-5.2,20.9-3.1,31.5
		c2.1,10.6,7.3,20.3,14.9,27.9c7.6,7.6,17.3,12.8,27.9,14.9c10.6,2.1,21.5,1,31.5-3.1c10-4.1,18.5-11.1,24.5-20.1
		c6-9,9.2-19.5,9.2-30.3c0-7.2-1.4-14.3-4.1-20.9c-2.7-6.6-6.8-12.6-11.8-17.7c-5.1-5.1-11.1-9.1-17.7-11.8
		C254.2,163.8,247.1,162.4,239.9,162.4 M239.9,247.2c-6,0-11.9-1.8-16.8-5.1c-5-3.3-8.9-8.1-11.2-13.6c-2.3-5.5-2.9-11.6-1.7-17.5
		c1.2-5.9,4.1-11.3,8.3-15.5c4.2-4.2,9.6-7.1,15.5-8.3c5.9-1.2,12-0.6,17.5,1.7c5.5,2.3,10.3,6.2,13.6,11.2c3.3,5,5.1,10.8,5.1,16.8
		c0,8-3.2,15.7-8.9,21.4C255.6,244,247.9,247.2,239.9,247.2"/>
	<path class="st1" d="M415.4,162.4c-10.8,0-21.3,3.2-30.3,9.2s-16,14.5-20.1,24.5s-5.2,20.9-3.1,31.5c2.1,10.6,7.3,20.3,14.9,27.9
		c7.6,7.6,17.3,12.8,27.9,14.9c10.6,2.1,21.5,1,31.5-3.1c10-4.1,18.5-11.1,24.5-20.1c6-9,9.2-19.5,9.2-30.3c0-7.2-1.4-14.3-4.1-20.9
		c-2.7-6.6-6.8-12.6-11.8-17.7c-5.1-5.1-11.1-9.1-17.7-11.8C429.6,163.8,422.5,162.4,415.4,162.4 M415.4,247.2
		c-6,0-11.8-1.8-16.8-5.1c-5-3.3-8.9-8.1-11.2-13.6c-2.3-5.5-2.9-11.6-1.7-17.5c1.2-5.9,4.1-11.3,8.3-15.5c4.2-4.2,9.6-7.1,15.5-8.3
		c5.9-1.2,12-0.6,17.5,1.7c5.5,2.3,10.3,6.2,13.6,11.2c3.3,5,5.1,10.8,5.1,16.8c0,8-3.2,15.7-8.9,21.4S423.4,247.2,415.4,247.2"/>
	<polygon class="st1" points="382.2,159.2 382.2,135 273.1,135 273.1,159.2 315.5,159.2 315.5,268.5 339.8,268.5 339.8,159.2 	"/>
	<path class="st1" d="M92.6,189.5v24.2H126c-7.7,20.3-22.5,33.4-39.6,33.4c-7.5,0-14.8-1.9-21.4-5.4c-6.6-3.5-12.2-8.6-16.3-14.8
		c-4.1-6.2-6.7-13.4-7.4-20.8c-0.7-7.4,0.4-14.9,3.3-21.8c2.9-6.9,7.4-13,13.2-17.7c5.8-4.7,12.6-8,20-9.4c7.3-1.5,14.9-1.1,22,1.1
		c7.1,2.2,13.6,6.1,18.9,11.3l17.2-17.2c-9.7-9.8-22.2-16.4-35.7-19.1c-13.5-2.7-27.5-1.3-40.3,3.9c-12.7,5.3-23.6,14.2-31.3,25.6
		C21.1,174.4,17,187.9,17,201.6c0,9.1,1.7,18.2,5.2,26.6c3.5,8.4,8.6,16.1,15.1,22.6c6.4,6.5,14.1,11.7,22.5,15.2
		c8.4,3.5,17.5,5.4,26.6,5.4c23.7,0,45.1-15.3,57.7-39.5v36.6h24.2v-79H92.6z"/>
</g>
</svg>
