<svg version="1.1" id="Layer_1" xmlns="http://www.w3.org/2000/svg" x="0" y="0" viewBox="0 0 792 127.2" style="enable-background:new 0 0 792 127.2" xml:space="preserve"><style>.st1{fill:#1f1f1f}</style><path d="M200.1 28.5c0 13.9-11.2 24.8-25.4 24.8-13.3 0-24.4-11.3-24.3-24.9 0-13.8 11.2-24.8 25.3-24.7 13.3 0 24.4 11.3 24.4 24.8z" style="fill:#0166cb"/><path class="st1" d="M786.9 120.8c-.9-4.1-1.8-8.3-2.6-12.4-.2-.9-.5-1.1-1.4-.9-1.6.4-3.2.5-4.8.4-3.2-.2-5.1-1.8-5.6-4.6-.1-.8-.2-1.7-.2-2.6V67.8c0-1.1.4-1.3 1.3-1.2h11.1c.9 0 1.2-.2 1.2-1.1-.1-4.2-.1-8.5 0-12.7 0-1-.3-1.1-1.2-1.1h-11.1c-1 0-1.3-.2-1.3-1.3.1-4.9 0-9.8 0-14.7 0-.8-.2-1.1-1.1-1.1h-17.5c-1 0-1.2.3-1.2 1.2v14.4c0 1.1-.2 1.4-1.3 1.4-2.5-.1-5 0-7.6 0-.7 0-.9.2-.9.9v13c0 .8.2 1 1 1 2.5-.1 5 .1 7.4-.1 1.2-.1 1.4.4 1.4 1.5 0 12.1-.1 24.3 0 36.4 0 6.3 2.1 11.7 7.4 15.5 4.2 3 9.1 3.9 14.2 4 4.4.1 8.7-.7 13-1.8v-.8l-.2-.4zM25.8 64.1C16.3 63.7 8 69.8 5.9 78.8c-.1.5 0 1.1-.5 1.5V86c.5.7.4 1.6.7 2.4 2.8 9.8 12.5 15.8 22.4 13.8 10.1-2 16.8-11.5 15.4-21.7-1.2-8.9-9-16-18.1-16.4zM619.2 76c0-2.1-.1-4.2-.4-6.3-1.1-7.6-4.8-13.4-11.9-16.7-4.3-2.1-8.9-2.5-13.6-1.9-8.2 1-14.5 4.7-17.9 12.5-.1.3-.1.9-.7.8-.5 0-.5-.5-.6-.9-1.1-3.1-2.8-5.8-5.3-8-8.5-7.4-27.5-7-33.4 8-.1.4-.2 1-.8.9-.6-.1-.3-.7-.3-1.1 0-3.4-.1-6.8 0-10.3 0-1-.2-1.3-1.3-1.3-5.4.1-10.9.1-16.3 0-1.1 0-1.3.3-1.3 1.3V121.7c0 1 .2 1.2 1.2 1.2 5.7-.1 11.4-.1 17.1 0 1.2 0 1.5-.3 1.5-1.5V81.2c0-1.6.1-3.1.4-4.7 1.5-7.4 9.2-11.6 15.9-8.5 4.3 2 6.1 5.6 6.1 10.2v43.2c0 1.1.2 1.6 1.5 1.5 5.4-.1 10.9-.1 16.3 0 1.1 0 1.5-.2 1.5-1.5V80.8c0-1.3.1-2.6.2-3.9.6-5.9 5-9.8 11.1-9.9 5.9-.1 10.1 3.5 11 9.4.1.9.1 1.7.1 2.6v42.5c0 1.1.3 1.4 1.4 1.4 5.6-.1 11.3-.1 16.9 0 1.3 0 1.7-.2 1.7-1.6-.1-15.1-.1-30.2-.1-45.3zM489.1 70.4c-5.9-2.2-12.1-3.3-18.2-4.9-3.6-1-7.2-2-10.2-4.3-2.5-1.9-3.8-4.4-3.6-7.6.4-4.7 3.3-7.3 7.5-8.9 3.6-1.3 7.3-1.4 11-1 7 .8 12.1 4.6 12.8 11 .1.8.5.6 1 .6h17.5c.8 0 1.1-.2 1-1-.5-9.4-4.8-16.5-12.6-21.7-5.5-3.6-11.6-5.3-18-5.8-7.9-.6-15.6 0-22.9 3.3-10.2 4.5-17 11.8-17.8 23.5-.4 6.1.8 11.8 4.9 16.6 4.1 4.8 9.5 7.6 15.4 9.6 5.5 1.9 11.3 2.9 17 4.4 3.5.9 7 1.9 10.2 3.7 2.1 1.2 3.8 2.8 4.5 5.1 1.4 4.6-.8 9.5-5.7 12-5.4 2.8-11.1 2.9-16.9 1.7-7.6-1.5-11.8-6.4-12.4-12.8-.1-.9-.5-.9-1.2-.9h-17.2c-1.1 0-1.2.3-1.2 1.2.4 12.7 7.3 22.5 19.2 26.8 11 4 22.3 4.1 33.6 1.5 6.6-1.6 12.5-4.7 16.9-10.1 3.7-4.6 5.3-9.9 5.5-15.7.2-6.2-1.3-11.9-5.4-16.7-4-4.6-9.1-7.5-14.7-9.6zM674.6 53.7c-6-2.5-12.3-3.2-18.7-2.9-5.8.3-11.4 1.5-16.5 4.5-6.4 3.8-10.3 9.3-12 16.6 6 .5 11.8.9 17.7 1.4.8.1.8-.4 1-.9 1.4-3.5 4-5.7 7.6-6.7 2.5-.7 5-.8 7.5-.3 5.1.8 7.9 4.2 7.8 9.4 0 1.5-.7 2.6-2 3.4-.8.5-1.6.8-2.5 1-3.6.9-7.3 1.2-10.9 1.5-4.8.5-9.5 1.1-14 2.6-5.6 1.9-10.3 4.9-12.9 10.6-1.7 3.9-2 7.9-1.5 12.1.7 6.9 4.1 12.1 10.4 15.3 5.8 2.9 12 3.5 18.4 2.5 6.7-1.1 12-4.4 15.4-10.4.1-.2.2-.4.7-.4v8.7c0 .9.2 1.2 1.1 1.2 5.5 0 11-.1 16.5 0 1.1 0 1.3-.3 1.3-1.3V75.1c-.2-10.3-5.1-17.4-14.4-21.4zm-5.8 46.1c-.8 5-5.4 9.4-10.9 10.4-3 .5-6 .6-8.9-.5-3-1.1-4.9-3.1-5.2-6.3-.4-3.3.9-5.9 3.7-7.7 1.9-1.2 4.1-1.9 6.3-2.3 5-.9 10.2-1.2 15.2-3.3 0 3.3.3 6.5-.2 9.7zM271.8 37.6c13.7-1.3 26.3 6.3 29.2 19.4.1.5.3.8.9.8h9.9c.7 0 .9-.2.8-.9-1.5-7.6-4.7-14.3-10.4-19.6-10.2-9.5-22.4-12.1-35.7-9.8-13.1 2.3-22.3 10-28.3 21.7-4.2 8.3-5.6 17.2-5.6 26.4 0 4.9.4 9.7 1.5 14.4 2.4 10.5 7.2 19.6 15.9 26.2 9.7 7.4 20.8 9.3 32.6 7.3 15.5-2.6 27.1-13.9 30.1-29.2.2-.8.1-1.2-.9-1.1-3.1.1-6.2.1-9.3 0-1 0-1.3.3-1.5 1.2-1.1 4.6-3.4 8.6-6.9 11.8-7.6 6.8-16.5 8.5-26.2 6.5-10-2.1-16.8-8.4-20.5-17.7-5.1-12.7-5.2-25.7-.2-38.4 4.1-11.2 12.4-17.9 24.6-19zM374.9 77c0-2.1 0-4.2-.3-6.4-1.1-8.7-5.5-15-14-18-8.2-2.8-16.5-2.6-24.6 0-7.2 2.3-12.5 6.8-15.7 13.7-.4.9-.3 1.2.7 1.5 2.8.9 5.6 1.9 8.3 2.9.9.3 1.2.1 1.7-.6 2.7-4.4 6.4-7.7 11.6-9 2.9-.7 5.9-.9 8.9-.6 2.4.2 4.7.8 6.8 2.1 4.2 2.7 5.6 6.9 5.7 11.6.1 3.4-.9 4.6-4.3 5.5-2.3.6-4.6.7-6.9 1-6.1.7-12.2 1.4-18.2 2.9-2.8.7-5.5 1.7-8 3.1-6.4 3.6-8.9 9.3-8.7 16.5.3 8.6 4.2 14.9 12 18.6 5.3 2.6 11 3 16.8 2.3 5.4-.6 10-2.9 13.8-6.8 1.2-1.3 2.2-2.7 3.1-4.2.1 0 .2.1.4.1V121.9c0 .7.2 1 1 .9 2.9 0 5.8-.1 8.7 0 1.2 0 1.4-.4 1.4-1.4-.2-14.7-.2-29.5-.2-44.4zm-11.4 23.4c-1.5 7.4-7.6 12.9-15.1 14-4 .5-7.9.5-11.7-.8-6.9-2.4-8.9-7.7-7.4-13.6.8-3.4 3.4-5.2 6.4-6.5 3.6-1.5 7.4-2.1 11.2-2.6 4.3-.5 8.6-1 12.8-2.1 1.4-.3 2.7-.8 4.1-1.6-.1 4.6.6 8.9-.3 13.2zM740.3 51.2c-3.5-.6-6.9-.8-10.3.1-6 1.7-9.8 5.7-11.9 11.5-.2.5-.1 1.4-.8 1.3-.6-.1-.3-1-.3-1.5V53c0-.9-.1-1.3-1.2-1.3-5.6.1-11.2.1-16.8 0-.9 0-1.2.2-1.2 1.1v69c0 .9.2 1.2 1.1 1.2 5.8 0 11.6-.1 17.3 0 1.2 0 1.4-.3 1.4-1.4V82.2c0-6.7 4.6-12.3 11.2-13.8 4.1-.9 8.1-.3 12.3.5V52.2c0-.7-.2-.9-.8-1zM80.9 64.1c-11 0-19.6 8.4-19.7 19.2 0 10.6 8.7 19.3 19.3 19.3 10.7 0 19.4-8.6 19.4-19.3.1-10.5-8.6-19.2-19-19.2zM136.5 64.1c-10.8 0-19.3 8.5-19.4 19.2-.1 10.6 8.6 19.3 19.3 19.4 10.7 0 19.4-8.6 19.4-19.2 0-10.9-8.6-19.4-19.3-19.4zM397.4 75.4v-46c0-1-.2-1.4-1.3-1.4-2.8.1-5.6.1-8.3 0-1.1 0-1.4.3-1.4 1.3v91.9c0 2-.3 1.7 1.7 1.7 2.6 0 5.2-.1 7.8 0 1.2 0 1.4-.3 1.4-1.4 0-15.4.1-30.8.1-46.1zM422.1 38.5V29c0-.9-.2-1.1-1.1-1.1-2.8.1-5.6.1-8.3 0-1.2 0-1.6.2-1.6 1.5.1 15.3 0 30.7 0 46v46.1c0 1 .3 1.3 1.3 1.3 2.7-.1 5.5-.1 8.2 0 1.2 0 1.5-.3 1.5-1.5V38.5z"/></svg>