<svg width="17" height="17" viewBox="0 0 17 17" fill="none" xmlns="http://www.w3.org/2000/svg">
<path d="M13.4583 15.5834H3.54167C2.75926 15.5834 2.125 14.9492 2.125 14.1667V4.25008C2.125 3.46768 2.75926 2.83341 3.54167 2.83341H4.95833V1.41675H6.375V2.83341H10.625V1.41675H12.0417V2.83341H13.4583C14.2407 2.83341 14.875 3.46768 14.875 4.25008V14.1667C14.875 14.9492 14.2407 15.5834 13.4583 15.5834ZM3.54167 7.08342V14.1667H13.4583V7.08342H3.54167ZM3.54167 4.25008V5.66675H13.4583V4.25008H3.54167ZM12.0417 12.7501H10.625V11.3334H12.0417V12.7501ZM9.20833 12.7501H7.79167V11.3334H9.20833V12.7501ZM6.375 12.7501H4.95833V11.3334H6.375V12.7501ZM12.0417 9.91675H10.625V8.50008H12.0417V9.91675ZM9.20833 9.91675H7.79167V8.50008H9.20833V9.91675ZM6.375 9.91675H4.95833V8.50008H6.375V9.91675Z" fill="#CA7C32"/>
</svg>
