<svg width="17" height="17" viewBox="0 0 17 17" fill="none" xmlns="http://www.w3.org/2000/svg">
<g clip-path="url(#clip0_103_1502)">
<path d="M8.50008 1.41675C4.583 1.41675 1.41675 4.583 1.41675 8.50008C1.41675 12.4172 4.583 15.5834 8.50008 15.5834C12.4172 15.5834 15.5834 12.4172 15.5834 8.50008C15.5834 4.583 12.4172 1.41675 8.50008 1.41675ZM8.50008 14.1667C5.37633 14.1667 2.83341 11.6238 2.83341 8.50008C2.83341 5.37633 5.37633 2.83341 8.50008 2.83341C11.6238 2.83341 14.1667 5.37633 14.1667 8.50008C14.1667 11.6238 11.6238 14.1667 8.50008 14.1667ZM11.043 4.95842L8.50008 7.50133L5.95716 4.95842L4.95842 5.95716L7.50133 8.50008L4.95842 11.043L5.95716 12.0417L8.50008 9.49883L11.043 12.0417L12.0417 11.043L9.49883 8.50008L12.0417 5.95716L11.043 4.95842Z" fill="#E44D43"/>
</g>
<defs>
<clipPath id="clip0_103_1502">
<rect width="17" height="17" fill="white"/>
</clipPath>
</defs>
</svg>
