<svg width="17" height="17" viewBox="0 0 17 17" fill="none" xmlns="http://www.w3.org/2000/svg">
<g clip-path="url(#clip0_106_1705)">
<path d="M10.6249 8.50016C12.1903 8.50016 13.4583 7.23225 13.4583 5.66683C13.4583 4.10141 12.1903 2.8335 10.6249 2.8335C9.0595 2.8335 7.79158 4.10141 7.79158 5.66683C7.79158 7.23225 9.0595 8.50016 10.6249 8.50016ZM10.6249 4.25016C11.4041 4.25016 12.0416 4.88766 12.0416 5.66683C12.0416 6.446 11.4041 7.0835 10.6249 7.0835C9.84575 7.0835 9.20825 6.446 9.20825 5.66683C9.20825 4.88766 9.84575 4.25016 10.6249 4.25016ZM10.6249 9.91683C8.73367 9.91683 4.95825 10.866 4.95825 12.7502V14.1668H16.2916V12.7502C16.2916 10.866 12.5162 9.91683 10.6249 9.91683ZM6.37492 12.7502C6.53075 12.2402 8.7195 11.3335 10.6249 11.3335C12.5374 11.3335 14.7333 12.2472 14.8749 12.7502H6.37492ZM4.24992 10.6252V8.50016H6.37492V7.0835H4.24992V4.9585H2.83325V7.0835H0.708252V8.50016H2.83325V10.6252H4.24992Z" fill="#53A5E9"/>
</g>
<defs>
<clipPath id="clip0_106_1705">
<rect width="17" height="17" fill="white"/>
</clipPath>
</defs>
</svg>
