<svg width="17" height="17" viewBox="0 0 17 17" fill="none" xmlns="http://www.w3.org/2000/svg">
<path d="M8.50008 15.5834C4.58984 15.5791 1.42104 12.4103 1.41675 8.50009V8.35843C1.49462 4.4658 4.69958 1.36573 8.59264 1.41738C12.4857 1.46904 15.6073 4.65305 15.5818 8.54637C15.5564 12.4397 12.3935 15.5826 8.50008 15.5834ZM8.48875 14.1668H8.50008C11.6286 14.1636 14.1626 11.6258 14.1611 8.49726C14.1595 5.36876 11.6229 2.83343 8.49441 2.83343C5.36591 2.83343 2.82931 5.36876 2.82775 8.49726C2.82618 11.6258 5.36024 14.1636 8.48875 14.1668ZM9.20841 12.7501H7.79175V11.3334H9.20841V12.7501ZM9.20841 10.6251H7.79175C7.76936 9.70261 8.24943 8.84066 9.0455 8.37401C9.513 8.01559 9.91675 7.70676 9.91675 7.08343C9.91675 6.30102 9.28248 5.66676 8.50008 5.66676C7.71768 5.66676 7.08341 6.30102 7.08341 7.08343H5.66675V7.01968C5.67814 6.00742 6.22869 5.07814 7.11102 4.58188C7.99335 4.08561 9.07341 4.09776 9.94435 4.61375C10.8153 5.12974 11.3448 6.07118 11.3334 7.08343C11.2827 7.84773 10.8728 8.54278 10.2284 8.95697C9.64595 9.3226 9.26844 9.94 9.20841 10.6251Z" fill="#611C9A"/>
</svg>
